<svg xmlns="http://www.w3.org/2000/svg" version="1.1" xmlns:xlink="http://www.w3.org/1999/xlink" xmlns:svgjs="http://svgjs.dev/svgjs" width="1000" height="750" viewBox="0 0 1000 750"><rect width="1000" height="750" fill="#1b4571"></rect><g transform="matrix(0.5535545023696683,0,0,0.5535545023696683,223.79953841545546,83.23643724696356)"><svg viewBox="0 0 234 247" data-background-color="#1b4571" preserveAspectRatio="xMidYMid meet" height="1055" width="1000" xmlns="http://www.w3.org/2000/svg" xmlns:xlink="http://www.w3.org/1999/xlink"><g id="tight-bounds" transform="matrix(1,0,0,1,-0.2438220010675991,-0.09999999999999432)"><svg viewBox="0 0 234.48764400213523 247.2" height="247.2" width="234.48764400213523"><g><svg viewBox="0 0 397.4975999999999 419.0472685166525" height="247.2" width="234.48764400213523"><g><rect width="397.4975999999999" height="9.686548497308799" x="0" y="233.4382731189858" fill="#ffffff" opacity="1" stroke-width="0" stroke="transparent" fill-opacity="1" class="rect-r$-0" data-fill-palette-color="primary" rx="1%" id="r$-0" data-palette-color="#ffffff"></rect></g><g transform="matrix(1,0,0,1,0.9887999999999693,268.4822784155323)"><svg viewBox="0 0 395.52 150.56499010112017" height="150.56499010112017" width="395.52"><g id="textblocktransform"><svg viewBox="0 0 395.52 150.56499010112017" height="150.56499010112017" width="395.52" id="textblock"><g><svg viewBox="0 0 395.52 107.41226045526733" height="107.41226045526733" width="395.52"><g transform="matrix(1,0,0,1,0,0)"><svg width="395.52" viewBox="3.03 -38.75 184.46 50.1" height="107.41226045526733" data-palette-color="#ffffff"><path d="M3.37-0.07L3.05-6.74Q3.05-6.76 3.04-6.77 3.03-6.79 3.03-6.81L3.03-6.81Q3.03-7.13 3.37-7.13L3.37-7.13Q3.59-7.13 3.76-6.96L3.76-6.96Q4.74-6.03 5.99-5.44 7.25-4.86 8.72-4.86L8.72-4.86Q9.11-4.86 9.62-4.94 10.13-5.03 10.6-5.22 11.06-5.42 11.36-5.75 11.67-6.08 11.67-6.57L11.67-6.57Q11.67-7.1 11.4-7.56 11.13-8.01 10.69-8.3L10.69-8.3Q10.45-8.47 9.84-8.9 9.23-9.33 8.53-9.81 7.84-10.3 7.21-10.74 6.59-11.18 6.35-11.38L6.35-11.38Q5.25-12.21 4.6-13.06 3.96-13.92 3.61-14.83 3.27-15.75 3.17-16.75 3.08-17.75 3.08-18.87L3.08-18.87Q3.08-20.58 3.98-22.09 4.88-23.61 6.36-24.76 7.84-25.9 9.72-26.57 11.6-27.25 13.55-27.25L13.55-27.25Q15.16-27.25 16.72-26.76 18.29-26.27 19.63-25.1L19.63-25.1Q19.75-23.56 19.8-22.07 19.85-20.58 19.95-18.95L19.95-18.95Q19.95-18.63 19.8-18.52 19.65-18.41 19.46-18.41L19.46-18.41Q19.29-18.41 19.17-18.53L19.17-18.53Q18.6-19.07 18.02-19.59 17.43-20.12 16.78-20.52 16.14-20.92 15.41-21.18 14.67-21.44 13.84-21.44L13.84-21.44Q13.33-21.44 12.82-21.35 12.3-21.26 11.89-21.03 11.47-20.8 11.22-20.41 10.96-20.02 10.96-19.41L10.96-19.41Q10.96-18.7 11.13-18.19 11.3-17.68 11.94-17.19L11.94-17.19 16.48-14.11Q17.72-13.26 18.49-12.44 19.26-11.62 19.7-10.82 20.14-10.01 20.3-9.22 20.46-8.42 20.46-7.64L20.46-7.64Q20.46-5.44 19.45-3.77 18.43-2.1 16.82-0.99 15.21 0.12 13.17 0.7 11.13 1.27 9.08 1.27L9.08 1.27Q7.52 1.27 6.07 0.94 4.61 0.61 3.37-0.07L3.37-0.07ZM23.46-11.91L23.46-11.91Q23.46-15.11 24.64-17.91 25.83-20.7 27.91-22.78 30-24.85 32.85-26.05 35.69-27.25 39.04-27.25L39.04-27.25Q41.31-27.25 42.92-26.88 44.53-26.51 45.55-26.06 46.58-25.61 47.06-25.23 47.53-24.85 47.53-24.83L47.53-24.83Q47.53-24.68 47.42-24.01 47.31-23.34 47.18-22.45 47.04-21.56 46.93-20.62 46.82-19.68 46.82-18.99L46.82-18.99Q46.82-18.87 46.75-18.73 46.68-18.58 46.36-18.58L46.36-18.58Q46.07-18.58 45.51-18.79 44.94-18.99 44.13-19.24 43.31-19.48 42.25-19.69 41.18-19.9 39.89-19.9L39.89-19.9Q38.28-19.9 36.98-19.32 35.69-18.75 34.76-17.74 33.84-16.72 33.33-15.33 32.83-13.94 32.83-12.33L32.83-12.33Q32.83-10.64 33.36-9.46 33.88-8.28 34.76-7.53 35.64-6.79 36.79-6.45 37.94-6.1 39.21-6.1L39.21-6.1Q40.67-6.1 42.16-6.51 43.65-6.91 44.97-7.64L44.97-7.64Q45.02-7.67 45.16-7.67L45.16-7.67Q45.29-7.67 45.35-7.54 45.41-7.42 45.41-7.08L45.41-7.08Q45.41-6.3 45.41-5.19 45.41-4.08 45.4-3.06 45.38-2.05 45.36-1.34 45.33-0.63 45.31-0.63L45.31-0.63Q44.43-0.05 43.41 0.32 42.38 0.68 41.29 0.9 40.21 1.12 39.11 1.2 38.01 1.27 36.98 1.27L36.98 1.27Q34.13 1.27 31.66 0.32 29.2-0.63 27.38-2.37 25.56-4.1 24.51-6.53 23.46-8.96 23.46-11.91ZM49.65 0.37L52.44-35.5Q52.44-35.64 52.42-35.77 52.41-35.89 52.41-36.01L52.41-36.01Q52.41-36.23 52.58-36.39 52.75-36.55 53.41-36.72L53.41-36.72 60.27-38.35Q60.54-38.4 60.98-38.57 61.42-38.75 61.84-38.75L61.84-38.75Q62.69-38.75 62.69-37.96L62.69-37.96Q62.69-37.92 62.62-36.96 62.54-36.01 62.42-34.59 62.3-33.18 62.15-31.51 62.01-29.83 61.86-28.32 61.71-26.81 61.59-25.67 61.47-24.54 61.4-24.19L61.4-24.19Q62.54-24.83 63.79-25.39 65.03-25.95 66.29-26.37 67.55-26.78 68.81-27.01 70.06-27.25 71.24-27.25L71.24-27.25Q72.72-27.25 74.02-26.82 75.31-26.39 76.28-25.4 77.24-24.41 77.79-22.81 78.34-21.22 78.34-18.9L78.34-18.9Q78.34-18.31 78.32-17.69 78.29-17.07 78.22-16.41L78.22-16.41 77.17-6.42Q77.05-5.4 77.02-4.28 77-3.17 77-2L77-2Q77-1.81 77.01-1.67 77.02-1.54 77.02-1.44L77.02-1.44Q77.02-1.22 76.84-1.1 76.66-0.98 76.02-0.78L76.02-0.78 70.04 0.88Q69.77 0.95 69.33 1.11 68.89 1.27 68.48 1.27L68.48 1.27Q68.06 1.27 67.84 1.09 67.62 0.9 67.62 0.37L67.62 0.37Q67.79-1.46 67.9-2.59 68.01-3.71 68.07-4.38 68.13-5.05 68.18-5.41 68.23-5.76 68.26-6.04 68.28-6.32 68.33-6.68 68.38-7.03 68.44-7.71 68.5-8.4 68.61-9.52 68.72-10.64 68.89-12.48L68.89-12.48Q68.99-13.45 69.1-14.42 69.21-15.38 69.21-16.19L69.21-16.19Q69.21-17.21 69.1-18.05 68.99-18.9 68.71-19.49 68.43-20.09 67.94-20.43 67.45-20.78 66.69-20.78L66.69-20.78Q66.13-20.78 65.17-20.53 64.2-20.29 63.24-19.73 62.28-19.17 61.53-18.25 60.79-17.33 60.69-15.99L60.69-15.99Q60.49-14.11 60.38-12.92 60.27-11.72 60.2-10.94 60.13-10.16 60.09-9.69 60.05-9.23 60.03-8.84L60.03-8.84Q60-8.72 59.96-8.24 59.91-7.76 59.83-7.1 59.76-6.45 59.69-5.7 59.61-4.96 59.55-4.3 59.49-3.64 59.46-3.16 59.42-2.69 59.42-2.56L59.42-2.56Q59.42-2.37 59.43-2.23 59.44-2.1 59.44-1.98L59.44-1.98Q59.44-1.78 59.26-1.65 59.08-1.51 58.44-1.34L58.44-1.34 52.07 0.88Q51.8 0.98 51.36 1.12 50.92 1.27 50.51 1.27L50.51 1.27Q50.14 1.27 49.9 1.06 49.65 0.85 49.65 0.37L49.65 0.37ZM95.5 1.27L95.5 1.27Q92.06 1.27 89.46 0.15 86.86-0.98 85.1-2.84 83.34-4.71 82.46-7.14 81.58-9.57 81.58-12.18L81.58-12.18Q81.58-14.79 82.44-17.15 83.29-19.51 84.83-21.37 86.37-23.24 88.52-24.5 90.67-25.76 93.25-26.2L93.25-26.2Q93.64-26.22 93.64-26.37L93.64-26.37Q93.64-26.64 93.58-26.87 93.52-27.1 93.52-27.27L93.52-27.27Q93.52-27.54 93.62-27.64 93.72-27.73 93.84-27.73L93.84-27.73Q98.5-27.73 101.77-26.67 105.05-25.61 107.1-23.78 109.15-21.95 110.08-19.46 111-16.97 111-14.11L111-14.11Q111-10.47 109.78-7.62 108.56-4.76 106.45-2.78 104.34-0.81 101.52 0.23 98.7 1.27 95.5 1.27ZM90.98-12.45L90.98-12.45Q90.98-11.13 91.26-9.84 91.55-8.54 92.19-7.5 92.84-6.45 93.89-5.8 94.94-5.15 96.5-5.15L96.5-5.15Q97.62-5.2 98.47-5.65 99.31-6.1 99.92-6.82 100.53-7.54 100.93-8.45 101.34-9.35 101.57-10.31 101.8-11.28 101.9-12.21 101.99-13.13 101.99-13.89L101.99-13.89Q101.99-15.16 101.62-16.38 101.24-17.6 100.51-18.53 99.77-19.46 98.69-20.03 97.6-20.61 96.18-20.61L96.18-20.61Q94.72-20.61 93.72-19.74 92.72-18.87 92.12-17.6 91.52-16.33 91.25-14.93 90.98-13.53 90.98-12.45ZM127.55 1.27L127.55 1.27Q124.11 1.27 121.51 0.15 118.91-0.98 117.15-2.84 115.4-4.71 114.52-7.14 113.64-9.57 113.64-12.18L113.64-12.18Q113.64-14.79 114.49-17.15 115.35-19.51 116.88-21.37 118.42-23.24 120.57-24.5 122.72-25.76 125.31-26.2L125.31-26.2Q125.7-26.22 125.7-26.37L125.7-26.37Q125.7-26.64 125.64-26.87 125.58-27.1 125.58-27.27L125.58-27.27Q125.58-27.54 125.67-27.64 125.77-27.73 125.89-27.73L125.89-27.73Q130.56-27.73 133.83-26.67 137.1-25.61 139.15-23.78 141.2-21.95 142.13-19.46 143.06-16.97 143.06-14.11L143.06-14.11Q143.06-10.47 141.84-7.62 140.62-4.76 138.5-2.78 136.39-0.81 133.57 0.23 130.75 1.27 127.55 1.27ZM123.04-12.45L123.04-12.45Q123.04-11.13 123.32-9.84 123.6-8.54 124.25-7.5 124.89-6.45 125.94-5.8 126.99-5.15 128.55-5.15L128.55-5.15Q129.68-5.2 130.52-5.65 131.36-6.1 131.97-6.82 132.58-7.54 132.99-8.45 133.39-9.35 133.62-10.31 133.85-11.28 133.95-12.21 134.05-13.13 134.05-13.89L134.05-13.89Q134.05-15.16 133.67-16.38 133.29-17.6 132.56-18.53 131.83-19.46 130.74-20.03 129.65-20.61 128.24-20.61L128.24-20.61Q126.77-20.61 125.77-19.74 124.77-18.87 124.17-17.6 123.57-16.33 123.31-14.93 123.04-13.53 123.04-12.45ZM147.86-20.65L147.86-20.65Q148.16-24 148.34-27.27 148.52-30.54 148.74-33.98L148.74-33.98Q148.79-34.79 148.9-35.1 149.01-35.4 149.45-35.5L149.45-35.5Q151.72-35.91 154-36.34 156.29-36.77 158.58-37.48L158.58-37.48Q158.65-37.5 158.8-37.5L158.8-37.5Q159.07-37.5 159.07-37.26L159.07-37.26 155.9-2.39 155.9-1.98Q155.9-1.76 155.72-1.62 155.55-1.49 154.92-1.32L154.92-1.32 148.52 1.03Q148.25 1.15 147.81 1.28 147.38 1.42 146.96 1.42L146.96 1.42Q146.62 1.42 146.36 1.25 146.11 1.07 146.11 0.66L146.11 0.66 146.11 0.51Q146.3-1.95 146.48-4.31 146.67-6.67 146.87-9.18 147.08-11.69 147.33-14.5 147.57-17.31 147.86-20.65ZM177.13-0.95L171.76 11.13Q171.71 11.23 171.65 11.29 171.59 11.35 171.44 11.35L171.44 11.35Q171.3 11.35 171.23 11.33L171.23 11.33Q170.35 11.01 169.57 10.79 168.78 10.57 168.01 10.39 167.25 10.21 166.44 10.05 165.63 9.89 164.73 9.69L164.73 9.69Q164.49 9.64 164.35 9.53 164.22 9.42 164.22 9.16L164.22 9.16Q164.22 9.08 164.3 8.8 164.39 8.52 164.73 7.65 165.07 6.79 165.78 5.14 166.49 3.49 167.73 0.71L167.73 0.71Q167.37-0.51 166.9-2.22 166.44-3.93 165.92-5.96 165.39-7.98 164.83-10.24 164.27-12.5 163.69-14.81 163.12-17.11 162.55-19.37 161.97-21.63 161.44-23.68L161.44-23.68Q161.26-24.07 161.24-24.33 161.22-24.58 161.22-24.76L161.22-24.76Q161.22-25.1 161.61-25.2L161.61-25.2Q163.51-25.61 165.56-26.06 167.61-26.51 169.44-27.22L169.44-27.22Q169.52-27.25 169.66-27.25L169.66-27.25Q169.98-27.25 170-27L170-27 172.98-10.6Q173.08-10.89 173.36-11.66 173.64-12.43 174.02-13.5 174.4-14.58 174.86-15.87 175.33-17.16 175.82-18.51 176.3-19.85 176.78-21.18 177.26-22.51 177.67-23.66 178.09-24.8 178.39-25.68 178.7-26.56 178.87-27L178.87-27Q178.96-27.25 179.23-27.25L179.23-27.25Q179.31-27.25 179.33-27.23 179.36-27.22 179.43-27.22L179.43-27.22Q181.26-26.51 183.19-26.06 185.12-25.61 187.02-25.2L187.02-25.2Q187.49-25.1 187.49-24.66L187.49-24.66Q187.49-24.34 187.19-23.68L187.19-23.68 177.13-0.95Z" opacity="1" transform="matrix(1,0,0,1,0,0)" fill="#ffffff" class="wordmark-text-0" data-fill-palette-color="primary" id="text-0"></path></svg></g></svg></g><g transform="matrix(1,0,0,1,0,132.76971725450503)"><svg viewBox="0 0 395.52 17.79527284661515" height="17.79527284661515" width="395.52"><g transform="matrix(1,0,0,1,0,0)"><svg width="395.52" viewBox="0.66 -36.18 818.2900000000001 36.81" height="17.79527284661515" data-palette-color="#ffffff"><path d="M26.25-12.99L26.25-12.99Q26.25-9.64 25.09-7.14 23.93-4.64 21.91-2.98 19.9-1.32 17.2-0.49 14.5 0.34 11.4 0.34L11.4 0.34Q10.21 0.34 8.78 0.02 7.35-0.29 5.88-0.77 4.42-1.25 3.06-1.79 1.71-2.34 0.66-2.83L0.66-2.83 1.73-12.89Q3.81-11.65 6.34-11 8.86-10.35 11.3-10.35L11.3-10.35Q11.77-10.35 12.43-10.39 13.09-10.42 13.68-10.61 14.28-10.79 14.7-11.16 15.11-11.52 15.11-12.21L15.11-12.21Q15.11-12.67 14.82-13 14.53-13.33 14.06-13.54 13.6-13.75 13.01-13.85 12.43-13.96 11.87-14.01 11.3-14.06 10.82-14.06 10.33-14.06 10.03-14.06L10.03-14.06Q7.93-14.06 6.21-14.79 4.49-15.53 3.26-16.83 2.03-18.14 1.34-19.93 0.66-21.73 0.66-23.83L0.66-23.83Q0.66-26.71 1.82-28.99 2.98-31.27 4.92-32.87 6.86-34.47 9.38-35.33 11.89-36.18 14.58-36.18L14.58-36.18Q15.77-36.18 17.04-36.1 18.31-36.01 19.57-35.79 20.83-35.57 22.02-35.23 23.22-34.89 24.29-34.38L24.29-34.38 23.36-24.46Q21.7-25.02 19.89-25.4 18.07-25.78 16.33-25.78L16.33-25.78Q16.02-25.78 15.52-25.77 15.01-25.76 14.47-25.7 13.92-25.63 13.35-25.51 12.79-25.39 12.35-25.18 11.91-24.98 11.65-24.63 11.38-24.29 11.4-23.83L11.4-23.83Q11.43-23.29 11.8-22.96 12.18-22.63 12.78-22.45 13.38-22.27 14.1-22.19 14.82-22.12 15.53-22.11 16.24-22.09 16.85-22.11 17.46-22.12 17.85-22.07L17.85-22.07Q19.8-21.95 21.36-21.24 22.92-20.53 24.01-19.36 25.1-18.19 25.67-16.56 26.25-14.94 26.25-12.99ZM51.07-33.35L51.07-33.35 50.2-23.05Q49.49-23.24 48.8-23.32 48.12-23.39 47.41-23.39L47.41-23.39Q45.68-23.39 44.1-22.95 42.53-22.51 41.32-21.61 40.11-20.7 39.39-19.32 38.67-17.94 38.67-16.06L38.67-16.06Q38.67-14.7 39.07-13.68 39.48-12.67 40.22-12 40.97-11.33 42.03-10.99 43.09-10.64 44.38-10.64L44.38-10.64Q45.29-10.64 46.24-10.83 47.19-11.01 48.14-11.33 49.1-11.65 49.98-12.06 50.85-12.48 51.61-12.94L51.61-12.94 51.22-1.46Q50.27-0.98 49.17-0.6 48.07-0.22 46.91 0.06 45.75 0.34 44.59 0.49 43.43 0.63 42.38 0.63L42.38 0.63Q38.92 0.63 36.07-0.66 33.23-1.95 31.19-4.19 29.15-6.42 28.03-9.38 26.9-12.33 26.9-15.67L26.9-15.67Q26.9-19.68 28.04-23.14 29.17-26.61 31.38-29.16 33.59-31.71 36.85-33.17 40.11-34.62 44.34-34.62L44.34-34.62Q46.02-34.62 47.75-34.35 49.49-34.08 51.07-33.35ZM81.62-34.33L82.4-0.98 70.19-0.39 70.09-10.69 64.48-10.69 64.14 0 53.2 0 54.13-34.33 65.75-33.79 65.01-16.26 70.43-16.26 70.48-34.62 81.62-34.33ZM114.89-18.7L114.89-18.7Q114.89-16.48 114.38-14.42 113.87-12.35 112.9-10.55 111.94-8.74 110.56-7.24 109.18-5.74 107.46-4.66 105.74-3.59 103.71-2.99 101.68-2.39 99.41-2.39L99.41-2.39Q97.22-2.39 95.23-2.95 93.24-3.52 91.5-4.53 89.77-5.54 88.37-6.97 86.96-8.4 85.97-10.14 84.99-11.89 84.44-13.89 83.89-15.89 83.89-18.07L83.89-18.07Q83.89-20.19 84.4-22.23 84.91-24.27 85.88-26.07 86.84-27.88 88.21-29.39 89.58-30.91 91.27-32.01 92.97-33.11 94.95-33.72 96.92-34.33 99.12-34.33L99.12-34.33Q102.66-34.33 105.58-33.23 108.5-32.13 110.56-30.09 112.62-28.05 113.76-25.16 114.89-22.27 114.89-18.7ZM104.05-18.07L104.05-18.07Q104.05-19.12 103.75-20.1 103.44-21.09 102.86-21.86 102.27-22.63 101.4-23.11 100.54-23.58 99.41-23.58L99.41-23.58Q98.27-23.58 97.36-23.17 96.46-22.75 95.81-22.03 95.17-21.31 94.82-20.35 94.48-19.38 94.48-18.31L94.48-18.31Q94.48-17.29 94.78-16.26 95.07-15.23 95.65-14.4 96.24-13.57 97.11-13.06 97.97-12.55 99.12-12.55L99.12-12.55Q100.27-12.55 101.18-13 102.1-13.45 102.73-14.22 103.37-14.99 103.71-15.99 104.05-16.99 104.05-18.07ZM146.78-18.7L146.78-18.7Q146.78-16.48 146.26-14.42 145.75-12.35 144.79-10.55 143.82-8.74 142.44-7.24 141.06-5.74 139.34-4.66 137.62-3.59 135.6-2.99 133.57-2.39 131.3-2.39L131.3-2.39Q129.1-2.39 127.11-2.95 125.12-3.52 123.39-4.53 121.66-5.54 120.25-6.97 118.85-8.4 117.86-10.14 116.87-11.89 116.32-13.89 115.77-15.89 115.77-18.07L115.77-18.07Q115.77-20.19 116.28-22.23 116.8-24.27 117.76-26.07 118.73-27.88 120.09-29.39 121.46-30.91 123.16-32.01 124.85-33.11 126.83-33.72 128.81-34.33 131.01-34.33L131.01-34.33Q134.55-34.33 137.46-33.23 140.38-32.13 142.44-30.09 144.51-28.05 145.64-25.16 146.78-22.27 146.78-18.7ZM135.94-18.07L135.94-18.07Q135.94-19.12 135.63-20.1 135.33-21.09 134.74-21.86 134.16-22.63 133.29-23.11 132.42-23.58 131.3-23.58L131.3-23.58Q130.15-23.58 129.25-23.17 128.34-22.75 127.7-22.03 127.05-21.31 126.71-20.35 126.37-19.38 126.37-18.31L126.37-18.31Q126.37-17.29 126.66-16.26 126.95-15.23 127.54-14.4 128.13-13.57 128.99-13.06 129.86-12.55 131.01-12.55L131.01-12.55Q132.15-12.55 133.07-13 133.98-13.45 134.62-14.22 135.25-14.99 135.6-15.99 135.94-16.99 135.94-18.07ZM159.99-12.94L169.9-12.94 168.87-2.1 148.32-0.49 149.1-35.35 161.79-35.35 159.99-12.94ZM185.55-33.89L197.27-33.06 185.79-14.31 186.13-0.49 173.58-0.49 173.88-14.21 164.94-32.32 177.39-33.89 181.3-23.34 185.55-33.89ZM206.96-33.69L219.95-34.38 218.24-1.12 207.93-0.59 206.96-33.69ZM246.95-12.5L246.95-12.5Q246.95-9.16 245.79-6.73 244.63-4.3 242.61-2.72 240.6-1.15 237.9-0.4 235.21 0.34 232.1 0.34L232.1 0.34Q230.91 0.34 229.48 0.02 228.05-0.29 226.59-0.77 225.12-1.25 223.77-1.79 222.41-2.34 221.36-2.83L221.36-2.83 222.44-12.4Q224.51-11.16 227.04-10.51 229.57-9.86 232.01-9.86L232.01-9.86Q232.47-9.86 233.13-9.9 233.79-9.94 234.39-10.12 234.99-10.3 235.4-10.67 235.82-11.04 235.82-11.72L235.82-11.72Q235.82-12.18 235.52-12.51 235.23-12.84 234.77-13.05 234.3-13.26 233.72-13.37 233.13-13.48 232.57-13.53 232.01-13.57 231.52-13.57 231.03-13.57 230.74-13.57L230.74-13.57Q228.64-13.57 226.92-14.23 225.2-14.89 223.96-16.1 222.73-17.31 222.05-19.03 221.36-20.75 221.36-22.85L221.36-22.85Q221.36-25.73 222.52-28.02 223.68-30.3 225.62-31.9 227.56-33.5 230.08-34.35 232.59-35.21 235.28-35.21L235.28-35.21Q236.47-35.21 237.74-35.12 239.01-35.03 240.27-34.81 241.53-34.59 242.72-34.25 243.92-33.91 245-33.4L245-33.4 244.07-23.49Q242.41-24.05 240.59-24.43 238.77-24.8 237.04-24.8L237.04-24.8Q236.72-24.8 236.22-24.79 235.72-24.78 235.17-24.72 234.62-24.66 234.06-24.54 233.5-24.41 233.06-24.21 232.62-24 232.35-23.66 232.08-23.32 232.1-22.85L232.1-22.85Q232.13-22.31 232.51-22.02 232.89-21.73 233.48-21.59 234.08-21.46 234.8-21.46 235.52-21.46 236.23-21.5 236.94-21.53 237.55-21.57 238.16-21.61 238.55-21.58L238.55-21.58Q240.5-21.46 242.07-20.75 243.63-20.04 244.71-18.87 245.8-17.7 246.37-16.08 246.95-14.45 246.95-12.5ZM279.54-34.96L289.06-2.1 276.95-0.54 275.49-6.05 269.92-6.05 268.7-0.54 256.25-1.76 265.97-34.28 279.54-34.96ZM270.95-13.53L274.61-13.53 272.75-22.02 270.95-13.53ZM319.87-12.35L319.87-12.35Q319.87-9.59 319.81-6.9 319.75-4.2 319.63-1.46L319.63-1.46 305.57-1.71Q306.3-6.03 306.84-10.34 307.37-14.65 307.37-19.04L307.37-19.04Q307.37-19.36 307.35-20.07 307.32-20.78 307.25-21.67 307.18-22.56 307.04-23.5 306.91-24.44 306.68-25.22 306.45-26 306.12-26.5 305.79-27 305.32-27L305.32-27Q304.49-27 303.92-26.51 303.34-26.03 302.97-25.26 302.59-24.49 302.37-23.54 302.15-22.58 302.04-21.63 301.93-20.68 301.89-19.84 301.86-18.99 301.86-18.46L301.86-18.46Q301.73-14.14 301.66-9.88 301.59-5.62 301.46-1.27L301.46-1.27 289.01-0.73Q289.5-9.35 289.95-17.87 290.41-26.39 290.67-35.01L290.67-35.01 302.2-35.6 302.1-31.69Q302.78-32.52 303.58-33.25 304.37-33.98 305.27-34.51 306.18-35.03 307.19-35.34 308.2-35.64 309.33-35.64L309.33-35.64Q311.4-35.64 312.96-34.96 314.53-34.28 315.65-33.11 316.77-31.93 317.53-30.33 318.29-28.74 318.75-26.93 319.21-25.12 319.46-23.16 319.7-21.19 319.79-19.29 319.87-17.38 319.87-15.6 319.87-13.82 319.87-12.35ZM362.11-18.7L362.11-18.7Q362.11-16.48 361.6-14.42 361.08-12.35 360.12-10.55 359.16-8.74 357.78-7.24 356.4-5.74 354.68-4.66 352.95-3.59 350.93-2.99 348.9-2.39 346.63-2.39L346.63-2.39Q344.43-2.39 342.44-2.95 340.45-3.52 338.72-4.53 336.99-5.54 335.58-6.97 334.18-8.4 333.19-10.14 332.2-11.89 331.65-13.89 331.1-15.89 331.1-18.07L331.1-18.07Q331.1-20.19 331.62-22.23 332.13-24.27 333.09-26.07 334.06-27.88 335.42-29.39 336.79-30.91 338.49-32.01 340.19-33.11 342.16-33.72 344.14-34.33 346.34-34.33L346.34-34.33Q349.88-34.33 352.8-33.23 355.71-32.13 357.78-30.09 359.84-28.05 360.97-25.16 362.11-22.27 362.11-18.7ZM351.27-18.07L351.27-18.07Q351.27-19.12 350.96-20.1 350.66-21.09 350.07-21.86 349.49-22.63 348.62-23.11 347.75-23.58 346.63-23.58L346.63-23.58Q345.48-23.58 344.58-23.17 343.68-22.75 343.03-22.03 342.38-21.31 342.04-20.35 341.7-19.38 341.7-18.31L341.7-18.31Q341.7-17.29 341.99-16.26 342.29-15.23 342.87-14.4 343.46-13.57 344.32-13.06 345.19-12.55 346.34-12.55L346.34-12.55Q347.49-12.55 348.4-13 349.32-13.45 349.95-14.22 350.59-14.99 350.93-15.99 351.27-16.99 351.27-18.07ZM393.85-12.35L393.85-12.35Q393.85-9.59 393.79-6.9 393.73-4.2 393.6-1.46L393.6-1.46 379.54-1.71Q380.27-6.03 380.81-10.34 381.35-14.65 381.35-19.04L381.35-19.04Q381.35-19.36 381.32-20.07 381.3-20.78 381.23-21.67 381.15-22.56 381.02-23.5 380.88-24.44 380.65-25.22 380.42-26 380.09-26.5 379.76-27 379.3-27L379.3-27Q378.47-27 377.89-26.51 377.32-26.03 376.94-25.26 376.56-24.49 376.34-23.54 376.12-22.58 376.01-21.63 375.9-20.68 375.87-19.84 375.83-18.99 375.83-18.46L375.83-18.46Q375.71-14.14 375.63-9.88 375.56-5.62 375.44-1.27L375.44-1.27 362.99-0.73Q363.48-9.35 363.93-17.87 364.38-26.39 364.65-35.01L364.65-35.01 376.17-35.6 376.07-31.69Q376.76-32.52 377.55-33.25 378.34-33.98 379.25-34.51 380.15-35.03 381.16-35.34 382.18-35.64 383.3-35.64L383.3-35.64Q385.38-35.64 386.94-34.96 388.5-34.28 389.62-33.11 390.75-31.93 391.5-30.33 392.26-28.74 392.72-26.93 393.19-25.12 393.43-23.16 393.68-21.19 393.76-19.29 393.85-17.38 393.85-15.6 393.85-13.82 393.85-12.35ZM407.64-12.94L417.55-12.94 416.53-2.1 395.97-0.49 396.75-35.35 409.45-35.35 407.64-12.94ZM418.46-33.69L431.45-34.38 429.74-1.12 419.43-0.59 418.46-33.69ZM463.72-12.35L463.72-12.35Q463.72-9.59 463.66-6.9 463.6-4.2 463.48-1.46L463.48-1.46 449.41-1.71Q450.15-6.03 450.68-10.34 451.22-14.65 451.22-19.04L451.22-19.04Q451.22-19.36 451.2-20.07 451.17-20.78 451.1-21.67 451.03-22.56 450.89-23.5 450.76-24.44 450.52-25.22 450.29-26 449.96-26.5 449.63-27 449.17-27L449.17-27Q448.34-27 447.77-26.51 447.19-26.03 446.81-25.26 446.44-24.49 446.22-23.54 446-22.58 445.89-21.63 445.78-20.68 445.74-19.84 445.7-18.99 445.7-18.46L445.7-18.46Q445.58-14.14 445.51-9.88 445.43-5.62 445.31-1.27L445.31-1.27 432.86-0.73Q433.35-9.35 433.8-17.87 434.25-26.39 434.52-35.01L434.52-35.01 446.04-35.6 445.95-31.69Q446.63-32.52 447.42-33.25 448.22-33.98 449.12-34.51 450.02-35.03 451.04-35.34 452.05-35.64 453.17-35.64L453.17-35.64Q455.25-35.64 456.81-34.96 458.37-34.28 459.5-33.11 460.62-31.93 461.38-30.33 462.13-28.74 462.6-26.93 463.06-25.12 463.31-23.16 463.55-21.19 463.64-19.29 463.72-17.38 463.72-15.6 463.72-13.82 463.72-12.35ZM493.26-19.73L493.26-19.73Q493.26-17.6 492.97-15.48L492.97-15.48Q488.79-15.21 484.67-14.61 480.54-14.01 476.42-13.43L476.42-13.43Q477.05-11.67 478.41-10.62 479.76-9.57 481.64-9.57L481.64-9.57Q482.62-9.57 483.78-9.94 484.94-10.3 486.08-10.85 487.23-11.4 488.28-12.04 489.33-12.67 490.09-13.18L490.09-13.18 488.92-2.1Q487.96-1.37 486.85-0.85 485.74-0.34 484.55-0.02 483.35 0.29 482.13 0.44 480.91 0.59 479.74 0.59L479.74 0.59Q477.32 0.59 475.32-0.07 473.32-0.73 471.69-1.92 470.07-3.1 468.85-4.71 467.63-6.32 466.82-8.23 466.02-10.13 465.6-12.26 465.19-14.38 465.19-16.55L465.19-16.55Q465.19-18.82 465.6-21.09 466.02-23.36 466.86-25.46 467.7-27.56 468.98-29.36 470.26-31.15 471.97-32.5 473.68-33.84 475.84-34.59 478-35.35 480.62-35.35L480.62-35.35Q482.79-35.35 484.58-34.75 486.38-34.16 487.78-33.09 489.18-32.03 490.22-30.57 491.26-29.1 491.93-27.36 492.6-25.61 492.93-23.67 493.26-21.73 493.26-19.73ZM483.5-20.46L483.5-21Q483.5-21.68 483.35-22.4 483.2-23.12 482.87-23.71 482.54-24.29 482.01-24.67 481.47-25.05 480.66-25.05L480.66-25.05Q479.69-25.05 478.94-24.52 478.2-24 477.66-23.21 477.12-22.41 476.78-21.48 476.44-20.56 476.27-19.78L476.27-19.78 483.5-20.46ZM529.64-12.5L529.64-12.5Q529.64-9.16 528.48-6.73 527.32-4.3 525.31-2.72 523.29-1.15 520.59-0.4 517.9 0.34 514.79 0.34L514.79 0.34Q513.6 0.34 512.17 0.02 510.74-0.29 509.28-0.77 507.81-1.25 506.46-1.79 505.1-2.34 504.05-2.83L504.05-2.83 505.13-12.4Q507.2-11.16 509.73-10.51 512.26-9.86 514.7-9.86L514.7-9.86Q515.16-9.86 515.82-9.9 516.48-9.94 517.08-10.12 517.68-10.3 518.09-10.67 518.51-11.04 518.51-11.72L518.51-11.72Q518.51-12.18 518.21-12.51 517.92-12.84 517.46-13.05 516.99-13.26 516.41-13.37 515.82-13.48 515.26-13.53 514.7-13.57 514.21-13.57 513.72-13.57 513.43-13.57L513.43-13.57Q511.33-13.57 509.61-14.23 507.89-14.89 506.65-16.1 505.42-17.31 504.74-19.03 504.05-20.75 504.05-22.85L504.05-22.85Q504.05-25.73 505.21-28.02 506.37-30.3 508.31-31.9 510.25-33.5 512.77-34.35 515.28-35.21 517.97-35.21L517.97-35.21Q519.17-35.21 520.43-35.12 521.7-35.03 522.96-34.81 524.22-34.59 525.42-34.25 526.61-33.91 527.69-33.4L527.69-33.4 526.76-23.49Q525.1-24.05 523.28-24.43 521.46-24.8 519.73-24.8L519.73-24.8Q519.41-24.8 518.91-24.79 518.41-24.78 517.86-24.72 517.31-24.66 516.75-24.54 516.19-24.41 515.75-24.21 515.31-24 515.04-23.66 514.77-23.32 514.79-22.85L514.79-22.85Q514.82-22.31 515.2-22.02 515.58-21.73 516.17-21.59 516.77-21.46 517.49-21.46 518.21-21.46 518.92-21.5 519.63-21.53 520.24-21.57 520.85-21.61 521.24-21.58L521.24-21.58Q523.19-21.46 524.76-20.75 526.32-20.04 527.4-18.87 528.49-17.7 529.06-16.08 529.64-14.45 529.64-12.5ZM554.49-33.35L554.49-33.35 553.61-23.05Q552.91-23.24 552.22-23.32 551.54-23.39 550.83-23.39L550.83-23.39Q549.1-23.39 547.52-22.95 545.95-22.51 544.74-21.61 543.53-20.7 542.81-19.32 542.09-17.94 542.09-16.06L542.09-16.06Q542.09-14.7 542.49-13.68 542.9-12.67 543.64-12 544.38-11.33 545.45-10.99 546.51-10.64 547.8-10.64L547.8-10.64Q548.71-10.64 549.66-10.83 550.61-11.01 551.56-11.33 552.51-11.65 553.39-12.06 554.27-12.48 555.03-12.94L555.03-12.94 554.64-1.46Q553.69-0.98 552.59-0.6 551.49-0.22 550.33 0.06 549.17 0.34 548.01 0.49 546.85 0.63 545.8 0.63L545.8 0.63Q542.33 0.63 539.49-0.66 536.65-1.95 534.61-4.19 532.57-6.42 531.45-9.38 530.32-12.33 530.32-15.67L530.32-15.67Q530.32-19.68 531.46-23.14 532.59-26.61 534.8-29.16 537.01-31.71 540.27-33.17 543.53-34.62 547.75-34.62L547.75-34.62Q549.44-34.62 551.17-34.35 552.91-34.08 554.49-33.35ZM585.03-34.33L585.82-0.98 573.61-0.39 573.51-10.69 567.9-10.69 567.55 0 556.62 0 557.54-34.33 569.17-33.79 568.43-16.26 573.85-16.26 573.9-34.62 585.03-34.33ZM618.31-18.7L618.31-18.7Q618.31-16.48 617.8-14.42 617.29-12.35 616.32-10.55 615.36-8.74 613.98-7.24 612.6-5.74 610.88-4.66 609.16-3.59 607.13-2.99 605.1-2.39 602.83-2.39L602.83-2.39Q600.63-2.39 598.65-2.95 596.66-3.52 594.92-4.53 593.19-5.54 591.78-6.97 590.38-8.4 589.39-10.14 588.4-11.89 587.85-13.89 587.3-15.89 587.3-18.07L587.3-18.07Q587.3-20.19 587.82-22.23 588.33-24.27 589.29-26.07 590.26-27.88 591.63-29.39 592.99-30.91 594.69-32.01 596.39-33.11 598.36-33.72 600.34-34.33 602.54-34.33L602.54-34.33Q606.08-34.33 609-33.23 611.91-32.13 613.98-30.09 616.04-28.05 617.18-25.16 618.31-22.27 618.31-18.7ZM607.47-18.07L607.47-18.07Q607.47-19.12 607.17-20.1 606.86-21.09 606.27-21.86 605.69-22.63 604.82-23.11 603.96-23.58 602.83-23.58L602.83-23.58Q601.68-23.58 600.78-23.17 599.88-22.75 599.23-22.03 598.58-21.31 598.24-20.35 597.9-19.38 597.9-18.31L597.9-18.31Q597.9-17.29 598.19-16.26 598.49-15.23 599.07-14.4 599.66-13.57 600.52-13.06 601.39-12.55 602.54-12.55L602.54-12.55Q603.69-12.55 604.6-13 605.52-13.45 606.15-14.22 606.79-14.99 607.13-15.99 607.47-16.99 607.47-18.07ZM650.2-18.7L650.2-18.7Q650.2-16.48 649.68-14.42 649.17-12.35 648.21-10.55 647.24-8.74 645.86-7.24 644.48-5.74 642.76-4.66 641.04-3.59 639.01-2.99 636.99-2.39 634.72-2.39L634.72-2.39Q632.52-2.39 630.53-2.95 628.54-3.52 626.81-4.53 625.07-5.54 623.67-6.97 622.27-8.4 621.28-10.14 620.29-11.89 619.74-13.89 619.19-15.89 619.19-18.07L619.19-18.07Q619.19-20.19 619.7-22.23 620.21-24.27 621.18-26.07 622.14-27.88 623.51-29.39 624.88-30.91 626.57-32.01 628.27-33.11 630.25-33.72 632.23-34.33 634.42-34.33L634.42-34.33Q637.96-34.33 640.88-33.23 643.8-32.13 645.86-30.09 647.92-28.05 649.06-25.16 650.2-22.27 650.2-18.7ZM639.36-18.07L639.36-18.07Q639.36-19.12 639.05-20.1 638.75-21.09 638.16-21.86 637.57-22.63 636.71-23.11 635.84-23.58 634.72-23.58L634.72-23.58Q633.57-23.58 632.67-23.17 631.76-22.75 631.12-22.03 630.47-21.31 630.13-20.35 629.79-19.38 629.79-18.31L629.79-18.31Q629.79-17.29 630.08-16.26 630.37-15.23 630.96-14.4 631.54-13.57 632.41-13.06 633.28-12.55 634.42-12.55L634.42-12.55Q635.57-12.55 636.49-13 637.4-13.45 638.04-14.22 638.67-14.99 639.01-15.99 639.36-16.99 639.36-18.07ZM663.4-12.94L673.32-12.94 672.29-2.1 651.73-0.49 652.51-35.35 665.21-35.35 663.4-12.94ZM711.89-19.38L711.89-19.38Q711.89-15.97 711.01-13.26 710.13-10.55 708.56-8.46 706.98-6.37 704.81-4.91 702.64-3.44 700.05-2.5 697.46-1.56 694.54-1.12 691.63-0.68 688.55-0.68L688.55-0.68Q687.4-0.68 686.3-0.74 685.21-0.81 684.06-0.93L684.06-0.93 684.74-32.71Q687.43-33.57 690.27-33.92 693.12-34.28 695.92-34.28L695.92-34.28Q699.41-34.28 702.34-33.3 705.27-32.32 707.4-30.43 709.52-28.54 710.71-25.77 711.89-23 711.89-19.38ZM696.26-24.17L695.29-10.01Q696.75-10.23 697.96-10.9 699.17-11.57 700.05-12.56 700.93-13.55 701.4-14.81 701.88-16.06 701.88-17.48L701.88-17.48Q701.88-18.87 701.59-20.08 701.29-21.29 700.63-22.18 699.98-23.07 698.9-23.6 697.83-24.12 696.26-24.17L696.26-24.17ZM713.16-33.69L726.15-34.38 724.44-1.12 714.14-0.59 713.16-33.69ZM749.02-34.96L758.54-2.1 746.44-0.54 744.97-6.05 739.4-6.05 738.18-0.54 725.73-1.76 735.45-34.28 749.02-34.96ZM740.43-13.53L744.09-13.53 742.24-22.02 740.43-13.53ZM787.67-23.54L787.67-23.54Q787.67-21.63 787.34-20.08 787.01-18.53 786.3-17.24 785.6-15.94 784.47-14.84 783.35-13.75 781.76-12.74L781.76-12.74 787.57-2.39 776.59-0.24 772.83-10.64 769.8-10.55 769.36-0.39 758.86-0.39Q758.98-5.96 759.09-11.47 759.2-16.99 759.35-22.56L759.35-22.56Q759.4-25.37 759.45-28.13 759.5-30.88 759.64-33.69L759.64-33.69Q761.35-34.33 763.01-34.74 764.67-35.16 766.35-35.39 768.02-35.62 769.74-35.71 771.46-35.79 773.27-35.79L773.27-35.79Q776.05-35.79 778.65-35.02 781.25-34.25 783.25-32.71 785.25-31.18 786.46-28.88 787.67-26.59 787.67-23.54ZM776.73-22.75L776.73-22.75Q776.73-23.78 776.45-24.63 776.17-25.49 775.62-26.11 775.07-26.73 774.26-27.09 773.44-27.44 772.34-27.44L772.34-27.44Q771.85-27.44 771.39-27.38 770.92-27.32 770.48-27.2L770.48-27.2 770.09-18.12 770.68-18.12Q771.73-18.12 772.81-18.38 773.9-18.65 774.77-19.21 775.63-19.78 776.18-20.65 776.73-21.53 776.73-22.75ZM807.23-33.89L818.95-33.06 807.47-14.31 807.81-0.49 795.26-0.49 795.56-14.21 786.62-32.32 799.07-33.89 802.98-23.34 807.23-33.89Z" opacity="1" transform="matrix(1,0,0,1,0,0)" fill="#ffffff" class="slogan-text-1" data-fill-palette-color="secondary" id="text-1"></path></svg></g></svg></g></svg></g></svg></g><g transform="matrix(1,0,0,1,112.97326349485935,0)"><svg viewBox="0 0 171.55107301028121 208.0808163197481" height="208.0808163197481" width="171.55107301028121"><g><svg xmlns="http://www.w3.org/2000/svg" xmlns:xlink="http://www.w3.org/1999/xlink" version="1.1" x="0" y="0" viewBox="12.900000000000002 5 74.2 90" enable-background="new 0 0 100 100" xml:space="preserve" height="208.0808163197481" width="171.55107301028121" class="icon-icon-0" data-fill-palette-color="accent" id="icon-0"><path d="M78.7 5H23.3h-5.6v3.4h-3.4c-0.8 0-1.4 0.6-1.4 1.4s0.6 1.4 1.4 1.4h3.4v3.9h-3.4c-0.8 0-1.4 0.6-1.4 1.4s0.6 1.4 1.4 1.4h3.4v3.9h-3.4c-0.8 0-1.4 0.6-1.4 1.4s0.6 1.4 1.4 1.4h3.4v3.9h-3.4c-0.8 0-1.4 0.6-1.4 1.4s0.6 1.4 1.4 1.4h3.4v3.9h-3.4c-0.8 0-1.4 0.6-1.4 1.4s0.6 1.4 1.4 1.4h3.4v3.9h-3.4c-0.8 0-1.4 0.6-1.4 1.4s0.6 1.4 1.4 1.4h3.4v3.9h-3.4c-0.8 0-1.4 0.6-1.4 1.4s0.6 1.4 1.4 1.4h3.4v3.9h-3.4c-0.8 0-1.4 0.6-1.4 1.4s0.6 1.4 1.4 1.4h3.4V62h-3.4c-0.8 0-1.4 0.6-1.4 1.4s0.6 1.4 1.4 1.4h3.4v3.9h-3.4c-0.8 0-1.4 0.6-1.4 1.4s0.6 1.4 1.4 1.4h3.4v3.9h-3.4c-0.8 0-1.4 0.6-1.4 1.4s0.6 1.4 1.4 1.4h3.4v3.9h-3.4c-0.8 0-1.4 0.6-1.4 1.4s0.6 1.4 1.4 1.4h3.4v3.9h-3.4c-0.8 0-1.4 0.6-1.4 1.4s0.6 1.4 1.4 1.4h3.4V95h5.6 55.4c4.7 0 8.4-3.8 8.4-8.4V13.4C87.1 8.8 83.3 5 78.7 5zM84.3 86.6c0 3.1-2.5 5.6-5.6 5.6H26.1V7.8h52.6c3.1 0 5.6 2.5 5.6 5.6V86.6z" fill="#bf2051" data-fill-palette-color="accent"></path><path d="M40.2 16.2c0 0.8-0.6 1.4-1.4 1.4h-5.6c-0.8 0-1.4-0.6-1.4-1.4s0.6-1.4 1.4-1.4h5.6C39.6 14.8 40.2 15.4 40.2 16.2zM77.2 14.8H44.3c-0.8 0-1.4 0.6-1.4 1.4s0.6 1.4 1.4 1.4h32.9c0.8 0 1.4-0.6 1.4-1.4S78 14.8 77.2 14.8zM38.8 23.8h-5.6c-0.8 0-1.4 0.6-1.4 1.4s0.6 1.4 1.4 1.4h5.6c0.8 0 1.4-0.6 1.4-1.4S39.6 23.8 38.8 23.8zM77.2 23.8H44.3c-0.8 0-1.4 0.6-1.4 1.4s0.6 1.4 1.4 1.4h32.9c0.8 0 1.4-0.6 1.4-1.4S78 23.8 77.2 23.8zM38.8 32.8h-5.6c-0.8 0-1.4 0.6-1.4 1.4s0.6 1.4 1.4 1.4h5.6c0.8 0 1.4-0.6 1.4-1.4S39.6 32.8 38.8 32.8zM77.2 32.8H44.3c-0.8 0-1.4 0.6-1.4 1.4s0.6 1.4 1.4 1.4h32.9c0.8 0 1.4-0.6 1.4-1.4S78 32.8 77.2 32.8zM38.8 41.8h-5.6c-0.8 0-1.4 0.6-1.4 1.4s0.6 1.4 1.4 1.4h5.6c0.8 0 1.4-0.6 1.4-1.4S39.6 41.8 38.8 41.8zM77.2 41.8H44.3c-0.8 0-1.4 0.6-1.4 1.4s0.6 1.4 1.4 1.4h32.9c0.8 0 1.4-0.6 1.4-1.4S78 41.8 77.2 41.8z" fill="#bf2051" data-fill-palette-color="accent"></path></svg></g></svg></g><g></g></svg></g><defs></defs></svg><rect width="234.48764400213523" height="247.2" fill="none" stroke="none" visibility="hidden"></rect></g></svg></g></svg>